<?xml version="1.0"?>
<svg xmlns="http://www.w3.org/2000/svg" xmlns:xlink="http://www.w3.org/1999/xlink" xmlns:svgjs="http://svgjs.com/svgjs" version="1.1" width="512" height="512" x="0" y="0" viewBox="0 0 512.034 512.034" style="enable-background:new 0 0 512 512" xml:space="preserve" class=""><g>
<g xmlns="http://www.w3.org/2000/svg" transform="translate(0 -1)">
	<g>
		<g>
			<path d="M503.484,495.968c-14.132-0.015-25.585-11.468-25.6-25.6V180.234c-0.028-23.553-19.114-42.639-42.667-42.667h-22.912     c-3.927-10.337-8.694-20.334-14.254-29.892c-0.188-0.326-0.4-0.638-0.633-0.933C359.87,42.665,291.744,2.681,217.492,1.143     c-1.177-0.09-2.527-0.128-3.81-0.137C213.503,1.005,213.338,1,213.16,1c-1.385,0.001-2.647,0.044-3.443,0.118     c-0.126,0.002-0.25,0.016-0.376,0.018l-0.066,0.003l-0.01,0.002C135.015,2.71,66.891,42.675,29.292,106.722     c-0.237,0.306-0.455,0.628-0.65,0.963c-38.167,66.002-38.167,147.365,0,213.367c0.191,0.329,0.405,0.644,0.642,0.942     c37.547,64.077,105.674,104.062,179.925,105.6c1.317,0.1,2.733,0.108,4.141,0.108c8.561-0.051,17.11-0.628,25.6-1.729v44.395     c0.028,23.553,19.114,42.639,42.667,42.667h221.867c4.713,0,8.533-3.82,8.533-8.533S508.197,495.968,503.484,495.968z      M393.788,137.568h-76.94c-1.125-5.794-2.39-11.483-3.796-17.067h72.49C388.58,126.045,391.333,131.742,393.788,137.568z      M375.057,103.434h-66.768c-7.975-29.072-22.688-55.856-42.946-78.181C309.959,37.625,348.798,65.302,375.057,103.434z      M221.884,18.933c27.163,5.458,52.59,36.824,68.527,84.501h-68.527V18.933z M221.884,120.501h73.54     c1.497,5.57,2.841,11.259,4.031,17.067h-51.971h-25.6V120.501z M204.817,18.937v84.497h-68.524     C152.207,55.8,177.618,24.43,204.817,18.937z M179.436,205.834h-59.673c0.456-28.805,4.35-57.452,11.598-85.333h73.456v17.929     c-19.85,4.08-34.105,21.539-34.133,41.804C170.716,189.496,173.791,198.491,179.436,205.834z M161.313,25.31     c-20.235,22.313-34.931,49.076-42.9,78.125H51.644C77.896,65.326,116.719,37.669,161.313,25.31z M41.109,120.501h72.675     c-6.893,27.937-10.612,56.562-11.086,85.333H17.361C18.64,175.947,26.765,146.753,41.109,120.501z M17.361,222.901h85.336     c0.474,28.771,4.192,57.396,11.084,85.333H41.107C26.766,281.982,18.643,252.788,17.361,222.901z M51.644,325.301h66.768     c7.976,29.071,22.688,55.855,42.945,78.18C116.742,391.109,77.903,363.433,51.644,325.301z M204.817,409.802     c-27.165-5.458-52.594-36.827-68.525-84.501h68.525V409.802z M204.817,308.234h-73.458c-7.247-27.882-11.14-56.529-11.596-85.333     h85.054V308.234z M238.951,402.741c-5.225,3.329-11.006,5.69-17.067,6.972v-84.412h17.067V402.741z M238.951,308.234h-17.067     v-86.196c6.209-1.316,12.042-4.012,17.067-7.889V308.234z M213.351,205.834c-14.139,0-25.6-11.461-25.6-25.6     s11.461-25.6,25.6-25.6c14.132,0.015,25.585,11.468,25.6,25.6C238.951,194.373,227.489,205.834,213.351,205.834z      M281.617,495.968c-14.132-0.015-25.585-11.468-25.6-25.6V180.234c-0.032-9.262-3.107-18.257-8.752-25.6h187.952     c14.132,0.015,25.585,11.468,25.6,25.6v290.133c0.032,9.262,3.107,18.257,8.752,25.6H281.617z" fill="#4cfdb3" data-original="#000000" style="" class=""/>
			<path d="M293.386,264.054c1.63,1.939,3.401,3.756,5.298,5.435v72.879c0,3.451,2.079,6.563,5.268,7.883     c3.189,1.321,6.859,0.59,9.299-1.85l19.567-19.566l19.567,19.567c2.44,2.441,6.111,3.171,9.299,1.85     c3.189-1.321,5.268-4.432,5.267-7.884v-72.879c1.897-1.679,3.668-3.495,5.298-5.435l0.644,0.372     c4.082,2.353,9.299,0.954,11.655-3.127c2.356-4.081,0.958-9.298-3.121-11.656l-0.672-0.388c1.124-3.01,1.958-6.12,2.493-9.287     h0.771c4.713,0,8.533-3.82,8.533-8.533s-3.82-8.533-8.533-8.533h-0.771c-0.534-3.168-1.369-6.278-2.493-9.288l0.672-0.388     c4.08-2.358,5.477-7.575,3.121-11.656c-2.356-4.081-7.573-5.481-11.655-3.127l-0.644,0.372c-2.053-2.478-4.333-4.758-6.811-6.811     l0.372-0.644c2.353-4.082,0.954-9.299-3.127-11.655c-4.081-2.356-9.298-0.958-11.656,3.121l-0.388,0.672     c-3.01-1.123-6.12-1.958-9.287-2.493v-0.771c0-4.713-3.821-8.533-8.533-8.533c-4.713,0-8.533,3.82-8.533,8.533v0.771     c-3.168,0.535-6.278,1.369-9.287,2.493l-0.388-0.672c-1.523-2.643-4.341-4.271-7.392-4.272c-3.05-0.001-5.869,1.626-7.394,4.268     s-1.524,5.896,0.002,8.537l0.372,0.644c-2.478,2.053-4.758,4.333-6.811,6.811l-0.644-0.372     c-4.082-2.353-9.299-0.954-11.655,3.127c-2.356,4.081-0.958,9.298,3.121,11.656l0.672,0.388c-1.124,3.01-1.958,6.12-2.493,9.288     h-0.771c-4.713,0-8.533,3.82-8.533,8.533s3.82,8.533,8.533,8.533h0.771c0.534,3.168,1.369,6.278,2.493,9.287l-0.672,0.388     c-3.348,1.931-4.98,5.871-3.978,9.604c1.002,3.733,4.388,6.326,8.253,6.321c1.495,0.001,2.964-0.393,4.258-1.142L293.386,264.054     z M349.884,321.768l-11.034-11.034c-1.6-1.601-3.77-2.5-6.033-2.5s-4.433,0.899-6.033,2.5l-11.033,11.034v-42.12     c11.029,3.983,23.104,3.983,34.133,0V321.768z M332.817,197.301c18.851,0,34.133,15.282,34.133,34.133     s-15.282,34.133-34.133,34.133c-18.851,0-34.133-15.282-34.133-34.133C298.704,212.591,313.974,197.321,332.817,197.301z" fill="#4cfdb3" data-original="#000000" style="" class=""/>
			<path d="M418.151,376.501H298.684c-2.263-0.001-4.434,0.898-6.035,2.499c-1.6,1.6-2.499,3.771-2.499,6.035     c-0.001,2.263,0.898,4.434,2.499,6.035c1.6,1.6,3.771,2.499,6.035,2.499h119.467c4.713,0,8.533-3.82,8.533-8.533     S422.863,376.501,418.151,376.501z" fill="#4cfdb3" data-original="#000000" style="" class=""/>
			<path d="M418.151,410.634H298.684c-4.713,0-8.533,3.82-8.533,8.533s3.82,8.533,8.533,8.533h119.467     c4.713,0,8.533-3.82,8.533-8.533S422.863,410.634,418.151,410.634z" fill="#4cfdb3" data-original="#000000" style="" class=""/>
			<path d="M418.151,444.768H298.684c-4.713,0-8.533,3.821-8.533,8.533c0,4.713,3.82,8.533,8.533,8.533h119.467     c4.713,0,8.533-3.821,8.533-8.533C426.684,448.588,422.863,444.768,418.151,444.768z" fill="#4cfdb3" data-original="#000000" style="" class=""/>
			<path d="M219.409,174.176c-3.421-3.158-8.695-3.158-12.117,0c-0.772,0.814-1.38,1.769-1.792,2.813     c-0.911,2.067-0.911,4.421,0,6.487c0.432,1.034,1.038,1.987,1.791,2.817c1.627,1.572,3.796,2.459,6.059,2.475     c2.259-0.035,4.421-0.918,6.059-2.475c0.753-0.83,1.359-1.783,1.792-2.817c0.911-2.066,0.911-4.421,0-6.487     C220.789,175.945,220.181,174.991,219.409,174.176z" fill="#4cfdb3" data-original="#000000" style="" class=""/>
		</g>
	</g>
</g>
<g xmlns="http://www.w3.org/2000/svg">
</g>
<g xmlns="http://www.w3.org/2000/svg">
</g>
<g xmlns="http://www.w3.org/2000/svg">
</g>
<g xmlns="http://www.w3.org/2000/svg">
</g>
<g xmlns="http://www.w3.org/2000/svg">
</g>
<g xmlns="http://www.w3.org/2000/svg">
</g>
<g xmlns="http://www.w3.org/2000/svg">
</g>
<g xmlns="http://www.w3.org/2000/svg">
</g>
<g xmlns="http://www.w3.org/2000/svg">
</g>
<g xmlns="http://www.w3.org/2000/svg">
</g>
<g xmlns="http://www.w3.org/2000/svg">
</g>
<g xmlns="http://www.w3.org/2000/svg">
</g>
<g xmlns="http://www.w3.org/2000/svg">
</g>
<g xmlns="http://www.w3.org/2000/svg">
</g>
<g xmlns="http://www.w3.org/2000/svg">
</g>
</g></svg>
